<svg width="60" height="52" viewBox="0 0 60 52" fill="none" xmlns="http://www.w3.org/2000/svg">
<path fill-rule="evenodd" clip-rule="evenodd" d="M29.9506 0.00819659C29.8993 0.228661 29.7058 1.56347 29.5204 2.97445C29.3351 4.38542 29.1015 6.12557 29.0014 6.84163L28.8193 8.14326L27.5255 8.42112C25.943 8.76104 24.5183 9.39132 23.1889 10.3394L22.1833 11.0566L21.199 10.3407C20.6575 9.94689 20.2146 9.66518 20.2146 9.71457C20.2146 9.76411 20.5136 10.2283 20.8792 10.7463L21.5437 11.6882L20.7825 12.7002C20.3638 13.2569 19.8565 14.0381 19.6549 14.4362C19.1994 15.3362 18.6111 17.2163 18.6079 17.7824C18.6065 18.0157 18.5524 18.2886 18.4876 18.3892C18.3946 18.5333 14.601 19.1747 13.0851 19.3026C12.8118 19.3257 12.779 19.2362 12.8166 18.5673C12.84 18.1483 12.7925 17.8057 12.7109 17.8057C12.4521 17.8057 11.2531 18.7451 10.9799 19.1618C10.5969 19.7458 10.4429 20.6052 10.5446 21.5898C10.6043 22.168 10.7062 22.4555 10.8517 22.4555C11.2821 22.4555 12.3472 21.3115 12.5225 20.6608L12.6943 20.023L13.4466 20.1154C17.4935 20.6122 18.3861 20.7328 18.49 20.797C18.5561 20.8377 18.6103 21.0395 18.6103 21.2456C18.6103 22.4308 19.7449 24.976 20.8824 26.3427L21.5155 27.1034L20.7451 28.1866C20.0256 29.1983 20.0065 29.2496 20.4557 28.9647C20.7201 28.797 21.2012 28.4529 21.5249 28.2001L22.1132 27.7407L22.8661 28.3918C24.0892 29.4499 27.1647 30.7931 28.364 30.7931C28.5479 30.7931 28.7389 30.8588 28.7887 30.9393C28.8865 31.0975 29.6797 37.8186 29.6797 38.4899C29.6797 38.8714 29.6344 38.8954 28.9979 38.8502C25.5152 38.6026 22.8544 37.8202 19.9974 36.2035C13.2388 32.379 9.43787 25.2183 10.1306 17.6154C10.497 13.5944 12.0762 9.99275 14.8107 6.94249L15.7804 5.86053L14.695 6.90272C12.296 9.2063 10.7349 12.0993 9.76353 16.042C9.62076 16.6219 9.5476 17.9118 9.54985 19.8099C9.55322 22.4845 9.58707 22.8183 10.0128 24.3654C10.9747 27.8608 12.1088 30.005 14.3879 32.6369C16.3228 34.8712 19.8535 37.2752 22.8616 38.4064C24.3784 38.9769 26.4484 39.447 27.9551 39.5632C28.6388 39.616 29.1984 39.6864 29.1984 39.7197C29.1984 39.7531 28.8047 40.3679 28.3236 41.0863C27.8425 41.8046 27.4857 42.452 27.5309 42.5251C27.7315 42.8495 28.1006 42.5772 28.9788 41.4574C29.4966 40.7972 29.9564 40.2607 30.0005 40.2655C30.0446 40.2701 30.5463 40.8477 31.1153 41.5487C31.9964 42.6342 32.1828 42.7903 32.3719 42.6015C32.5609 42.4124 32.461 42.1944 31.6983 41.132C31.2056 40.4459 30.8026 39.8231 30.8026 39.7481C30.8026 39.673 31.1342 39.6116 31.5395 39.6116C31.9447 39.6116 32.992 39.4659 33.8666 39.2878C40.2746 37.9826 45.6821 33.9501 48.4449 28.4164C49.9879 25.3257 50.6113 22.4603 50.4916 19.0082C50.3639 15.3275 49.5335 12.6651 47.5574 9.60057C46.8459 8.49728 44.7779 6.20798 44.2261 5.91264C44.0544 5.82092 44.3448 6.16837 44.8714 6.68498C48.1528 9.90409 49.9274 14.3062 49.9364 19.2487C49.9418 22.2987 49.3616 24.8899 48.0578 27.6358C45.1039 33.8571 38.5786 38.2961 31.7132 38.7545L30.137 38.8596L30.2257 38.3137C30.2747 38.0134 30.4681 36.5772 30.656 35.1222C30.8439 33.6671 31.0439 32.1205 31.1005 31.6852L31.2037 30.8937L32.5543 30.5981C34.1913 30.2399 35.6093 29.5844 36.9634 28.56L37.9781 27.7925L38.3609 28.096C38.5714 28.2631 39.065 28.6269 39.4577 28.9046L40.1716 29.4097L39.8318 28.9389C39.6449 28.68 39.2779 28.184 39.0162 27.8366L38.5406 27.2052L39.2838 26.2332C40.208 25.0249 41.0097 23.3037 41.3046 21.8951C41.4284 21.3038 41.5532 20.7966 41.5819 20.7678C41.6867 20.6632 47.2255 20.0682 47.3542 20.1477C47.4272 20.1928 47.4868 20.419 47.4868 20.6506C47.4868 20.9461 47.7275 21.3031 48.2946 21.8496C48.739 22.2775 49.1618 22.591 49.2345 22.5461C49.4646 22.404 49.585 20.6929 49.4105 20.0453C49.2138 19.3149 48.596 18.5311 47.9571 18.2008C47.2903 17.8562 47.2382 17.895 47.3012 18.6875C47.3351 19.1126 47.2908 19.4091 47.1936 19.4091C46.7531 19.4091 41.7775 18.563 41.6811 18.4717C41.6203 18.414 41.4584 17.8283 41.3215 17.17C41.0151 15.6963 40.1936 13.9331 39.2306 12.6821C38.8305 12.1624 38.503 11.6851 38.503 11.6213C38.503 11.5575 38.7687 11.1733 39.0932 10.7673C40.0826 9.53018 40.0688 9.55295 39.7062 9.75321C39.5298 9.85069 39.0244 10.1778 38.5833 10.4799L37.7811 11.0293L36.8014 10.3312C35.4408 9.36166 33.9442 8.6953 32.4196 8.38023C31.7066 8.23288 31.1212 8.07463 31.1187 8.02861C31.0474 6.80812 30.0161 -0.273838 29.9506 0.00819659ZM17.2467 0.994755C16.3586 1.45284 15.4411 2.36949 15.2297 3.0102C15.1261 3.32398 15.098 3.87811 15.1622 4.34453L15.272 5.14237L15.9367 4.77985C16.3023 4.58055 16.9379 4.08559 17.3489 3.67993C17.9649 3.07193 18.1299 2.78124 18.2866 2.02669C18.585 0.589582 18.396 0.401986 17.2467 0.994755ZM41.6212 1.4894C41.8198 2.98567 42.406 3.75529 44.1362 4.79107L44.7161 5.1382L44.8182 4.3944C44.9696 3.28951 44.7051 2.55164 43.8872 1.79821C43.1974 1.16263 42.2434 0.649548 41.7515 0.649548C41.5527 0.649548 41.5296 0.798823 41.6212 1.4894ZM46.0289 3.8143C45.5911 5.3529 45.7956 6.15555 47.0208 7.70457L47.6972 8.55965L47.9909 8.19713C48.3993 7.69303 48.656 6.63768 48.5315 5.97437C48.3629 5.07631 47.6275 4.08559 46.5055 3.2451C46.2804 3.07642 46.2176 3.15178 46.0289 3.8143ZM12.8238 3.80532C11.481 5.01779 11.109 6.63768 11.8651 7.97923L12.2459 8.65489L12.9637 7.73872C13.9692 6.45554 14.3382 5.5748 14.2229 4.73399C14.1184 3.97207 13.8139 3.21495 13.6118 3.21495C13.538 3.21495 13.1835 3.48063 12.8238 3.80532ZM29.8887 14.1083C29.8577 16.881 29.8069 19.175 29.7758 19.2061C29.7446 19.2372 29.3046 18.7908 28.7978 18.2141L27.8766 17.1653L28.1336 15.4412C28.2751 14.493 28.6095 12.0937 28.8769 10.1095C29.1443 8.1253 29.4523 5.88859 29.5614 5.13901L29.7599 3.77613L29.8524 6.42171C29.9033 7.87677 29.9197 11.3357 29.8887 14.1083ZM18.5301 4.24176C18.2654 4.35864 17.7254 4.74313 17.3301 5.0962L16.6114 5.73803L17.7452 5.94053C18.6654 6.10488 18.9974 6.10408 19.5068 5.93621C20.1549 5.72264 21.6504 4.81721 21.6555 4.63538C21.6571 4.57878 21.3682 4.41636 21.0135 4.27462C20.239 3.96485 19.1887 3.9509 18.5301 4.24176ZM39.0437 4.24753C38.7676 4.36778 38.4997 4.53373 38.4485 4.61646C38.325 4.81609 40.1931 5.91216 40.8748 6.03994C41.1698 6.09526 41.8527 6.04684 42.3925 5.93236L43.374 5.72424L42.663 5.08898C42.2721 4.73977 41.7199 4.35544 41.4359 4.23518C40.7832 3.95876 39.6947 3.96437 39.0437 4.24753ZM15.8032 6.99492C15.1524 7.33419 14.8086 7.66032 14.2525 8.46602L13.7822 9.14745L14.953 9.14681C15.8077 9.14649 16.2537 9.06664 16.605 8.85115C17.1131 8.53961 18.2895 7.38919 18.2895 7.20368C18.2895 7.03388 17.3343 6.74222 16.7816 6.74335C16.508 6.74399 16.0678 6.85719 15.8032 6.99492ZM42.0324 6.99828L41.4709 7.24168L42.273 7.95662C43.4881 9.03954 43.8027 9.16813 45.1069 9.11426L46.2456 9.06728L45.5951 8.24571C44.5394 6.91234 43.2624 6.46516 42.0324 6.99828ZM9.48006 7.76213C8.71612 8.99738 8.49666 10.2107 8.84927 11.248C9.03183 11.7848 9.79097 12.9883 9.94738 12.9891C9.9915 12.9893 10.27 12.4398 10.5663 11.768C11.0328 10.7101 11.0963 10.4125 11.0412 9.54509C10.9934 8.79503 10.8676 8.37767 10.5403 7.88351C10.3 7.52034 10.038 7.2234 9.95813 7.2234C9.8784 7.2234 9.66327 7.46583 9.48006 7.76213ZM49.4642 7.9757C49.0784 8.6318 49.0126 8.91368 49.0224 9.86897C49.0319 10.7787 49.1264 11.1797 49.521 11.9859L50.0081 12.9805L50.4234 12.5471C51.4768 11.448 51.62 9.9113 50.8157 8.3371C50.5288 7.77576 50.2096 7.29138 50.1059 7.26076C50.0023 7.22997 49.7135 7.55177 49.4642 7.9757ZM33.7941 9.15659C34.6857 9.45193 36.0673 10.2084 37.0719 10.9513L37.4515 11.2318L37.1106 11.5726L36.7696 11.9133L35.8576 11.2605C34.8744 10.5568 33.2113 9.85406 32.0727 9.66117C31.428 9.55198 31.3598 9.49619 31.3154 9.04275L31.2664 8.54426L32.0373 8.68696C32.4611 8.76553 33.2517 8.97685 33.7941 9.15659ZM28.6876 9.08652C28.6422 9.46316 28.5183 9.53659 27.4918 9.79634C26.2345 10.1143 24.998 10.6878 23.9395 11.444L23.2529 11.9346L22.9245 11.6066L22.5963 11.2783L23.2102 10.7932C24.5448 9.73846 27.0047 8.69578 28.2063 8.67542C28.6882 8.66724 28.7336 8.70604 28.6876 9.08652ZM28.4965 10.4502C28.4413 10.7258 28.3963 11.1438 28.3963 11.3792C28.3963 11.7605 28.2957 11.8381 27.4738 12.0905C26.9664 12.2463 26.2113 12.5915 25.7958 12.8577L25.04 13.3416L24.3921 12.8211C24.0356 12.5347 23.7439 12.249 23.7439 12.186C23.7439 11.8055 25.9942 10.552 27.3158 10.1964C28.5636 9.86047 28.6125 9.87089 28.4965 10.4502ZM33.1006 10.337C34.2447 10.7224 35.3545 11.2854 36.0694 11.8429L36.443 12.1344L35.7091 12.7355L34.975 13.3366L34.0519 12.7719C33.5441 12.4612 32.794 12.119 32.3848 12.0116C31.6643 11.8225 31.6375 11.7935 31.5425 11.1008C31.3556 9.73878 31.3431 9.74487 33.1006 10.337ZM13.4923 10.4433C13.192 10.6262 12.8153 10.9327 12.6554 11.1243C12.3451 11.4956 11.7121 12.7369 11.7121 12.9741C11.7121 13.2191 13.2069 12.9723 13.8441 12.6221C14.3826 12.3261 15.3847 11.0792 15.6598 10.3626C15.8156 9.95683 14.1914 10.0173 13.4923 10.4433ZM44.2783 10.1973C44.2783 10.4385 45.4161 12.0173 45.8569 12.3882C46.325 12.7818 48.0413 13.2965 48.2362 13.1017C48.4014 12.9367 47.8783 11.8259 47.3386 11.1958C47.0338 10.84 46.5477 10.4499 46.2585 10.3291C45.7498 10.1167 44.2783 10.0187 44.2783 10.1973ZM38.9004 12.8272C39.7282 13.8226 40.5573 15.5369 40.9373 17.039C41.1144 17.7387 41.2218 18.3486 41.176 18.3943C41.1303 18.4401 40.8833 18.4315 40.6271 18.3754C40.2043 18.2825 40.145 18.1846 39.9828 17.313C39.763 16.1326 38.8768 14.255 38.1352 13.3991C37.6071 12.7895 37.5938 12.7443 37.8419 12.4025C37.985 12.2056 38.1482 12.06 38.2045 12.0791C38.2608 12.0981 38.5741 12.4349 38.9004 12.8272ZM22.1431 12.5208C22.2894 12.7942 22.2254 12.9741 21.7532 13.617C20.9957 14.6485 20.2659 16.224 20.0407 17.3143C19.8511 18.2319 19.6982 18.4403 19.2119 18.4446C18.4119 18.4515 19.4773 15.0965 20.8953 13.1437C21.6311 12.1302 21.87 12.0111 22.1431 12.5208ZM28.0165 13.9265C27.8949 14.7442 27.7669 15.4417 27.7321 15.4765C27.6973 15.5113 27.1429 15.1027 26.5002 14.5686L25.3315 13.5976L25.9414 13.1804C26.6107 12.7227 28.1314 12.147 28.1967 12.3268C28.2192 12.389 28.1381 13.1089 28.0165 13.9265ZM32.7488 12.5229C33.6215 12.8666 34.4924 13.4136 34.4924 13.6177C34.4924 13.7334 32.5044 15.4388 32.2717 15.5226C32.1731 15.5582 31.7567 12.9968 31.7631 12.3943C31.7658 12.1357 31.7662 12.1357 32.7488 12.5229ZM7.20267 12.7951C7.1093 13.0376 6.99331 13.7456 6.94518 14.3684C6.87444 15.2829 6.91887 15.639 7.1762 16.2206C7.48421 16.9165 8.72334 18.1062 8.87317 17.8498C8.91312 17.7815 9.03504 17.1122 9.14429 16.3627C9.39327 14.6514 9.21745 13.8949 8.3619 12.9959C7.64079 12.2383 7.43127 12.202 7.20267 12.7951ZM51.8158 12.7818C51.1633 13.3305 50.7018 14.3183 50.7045 15.1601C50.7066 15.779 51.0703 17.7529 51.2076 17.89C51.3555 18.038 52.4892 16.9341 52.7855 16.3535C53.2859 15.3732 53.0984 12.5936 52.5187 12.4005C52.4204 12.3677 52.104 12.5394 51.8158 12.7818ZM23.2238 13.8785L23.7465 14.5888L23.2075 15.4356C22.911 15.9014 22.5459 16.6548 22.396 17.1097L22.1236 17.937L21.2092 18.0957C20.7063 18.1831 20.2727 18.2338 20.2457 18.2083C20.1203 18.0897 20.7703 16.0458 21.2111 15.1729C21.7181 14.1691 22.4211 13.1511 22.5999 13.1621C22.6556 13.1655 22.9364 13.488 23.2238 13.8785ZM38.3057 14.2885C38.8996 15.1744 39.7864 17.4109 39.7864 18.0228C39.7864 18.1782 39.5739 18.1881 38.8411 18.0669C37.916 17.9141 37.8913 17.8964 37.7 17.2569C37.4423 16.3955 36.8274 15.1931 36.5102 14.93C36.371 14.8144 36.2571 14.6525 36.2571 14.5699C36.2571 14.3086 37.2715 13.1464 37.4482 13.2053C37.5413 13.2364 37.9273 13.7238 38.3057 14.2885ZM12.6164 14.0321C11.4008 14.4652 10.5891 15.726 10.5891 17.181V17.7818L11.2545 17.5132C12.4651 17.0244 13.0832 16.1789 13.7077 14.158C13.8412 13.7257 13.5654 13.694 12.6164 14.0321ZM46.535 14.7947C46.987 16.2865 47.5306 16.9371 48.8104 17.5172L49.4119 17.79V17.185C49.4119 15.6745 48.4863 14.3212 47.2104 13.9672C46.2155 13.6911 46.2047 13.7042 46.535 14.7947ZM25.2126 16.3137C25.6617 16.8777 26.0021 17.3598 25.9694 17.385C25.8128 17.5054 22.7565 17.8344 22.663 17.7408C22.5165 17.5944 22.979 16.391 23.497 15.5709C23.9964 14.7801 23.9891 14.7769 25.2126 16.3137ZM36.7034 15.8925C37.1884 16.6947 37.5596 17.6431 37.4441 17.7844C37.4176 17.8169 36.6025 17.7162 35.6329 17.5609L33.8698 17.2783L34.863 16.1037C35.4091 15.4575 35.9282 14.9499 36.0165 14.9754C36.1047 15.0009 36.4138 15.4136 36.7034 15.8925ZM34.9737 17.7949C38.3747 18.308 43.0187 19.0688 44.1981 19.3061C45.2318 19.5139 44.7211 19.5335 37.7858 19.5506L30.2505 19.5694L31.2839 18.5272C31.8897 17.9165 32.4521 17.4866 32.6429 17.4887C32.8219 17.4908 33.8708 17.6285 34.9737 17.7949ZM6.28183 19.382C6.33092 20.622 6.39765 20.8944 6.81909 21.5744C7.1454 22.1008 7.53282 22.4694 8.02228 22.7192C9.08493 23.2617 9.13418 23.2354 9.04146 22.1749C8.82841 19.7397 8.43602 18.9067 7.20636 18.2796C6.23803 17.786 6.21942 17.8083 6.28183 19.382ZM52.5295 18.4871C51.5081 19.1793 51.1659 19.891 51.0234 21.6201C50.9601 22.3881 50.9328 23.047 50.9628 23.084C50.9926 23.1209 51.3868 22.9782 51.8387 22.7667C53.0618 22.1941 53.6185 21.307 53.8158 19.6159C53.9282 18.6513 53.7986 17.966 53.5036 17.966C53.3907 17.966 52.9524 18.2006 52.5295 18.4871ZM28.854 20.6927L27.9952 21.6557L27.1931 21.5906C26.7519 21.5547 24.3696 21.2331 21.899 20.8758C19.4285 20.5186 16.9178 20.1766 16.3198 20.1158C13.6927 19.8487 15.5618 19.7297 22.3874 19.7297H29.7127L28.854 20.6927ZM31.1779 21.0262C31.9388 21.8664 32.0512 22.0723 31.9885 22.5094C31.8756 23.2949 30.981 30.0145 30.715 32.0758C30.2426 35.7372 30.229 35.6859 30.1133 29.831C29.9636 22.2445 29.9713 20.0504 30.1475 20.0504C30.2283 20.0504 30.6919 20.4896 31.1779 21.0262ZM19.9512 21.1327C19.9946 21.2869 20.0803 21.6658 20.1416 21.9745C20.3065 22.8052 21.0902 24.4587 21.7348 25.3363C22.2914 26.0942 22.2959 26.113 22.0085 26.4678L21.716 26.8287L21.1526 26.1251C20.0798 24.7858 19.2654 23.0353 19.016 21.5335C18.9039 20.8572 18.9066 20.8521 19.3876 20.8521C19.712 20.8521 19.8982 20.9448 19.9512 21.1327ZM41.0679 21.1327C41.0615 22.0752 40.1509 24.3698 39.3202 25.5369C38.311 26.9547 38.3866 26.8999 37.9889 26.5024L37.6393 26.153L38.1694 25.4939C38.9044 24.5796 39.5676 23.2145 39.8986 21.9344C40.1594 20.9251 40.2084 20.8521 40.624 20.8521C40.9425 20.8521 41.0694 20.9323 41.0679 21.1327ZM22.1798 21.2807C22.2459 21.32 22.3001 21.438 22.3003 21.543C22.3004 21.7765 23.1606 23.5323 23.499 23.9894C23.7264 24.297 23.7069 24.3694 23.2285 24.9915C22.9449 25.3605 22.6274 25.6622 22.5231 25.6622C22.0845 25.6622 20.6309 22.8813 20.4393 21.6756L20.3282 20.9759L21.1938 21.0926C21.67 21.1569 22.1137 21.2416 22.1798 21.2807ZM39.7864 21.1681C39.7864 21.6637 38.7478 24.0359 38.1711 24.8577C37.7988 25.3884 37.4771 25.8226 37.4564 25.8226C37.4357 25.8226 37.1558 25.5017 36.8343 25.1097L36.2499 24.397L36.7899 23.5464C37.087 23.0787 37.4579 22.3572 37.6141 21.9432C37.8578 21.2972 37.9696 21.1814 38.4012 21.1271C39.3879 21.0028 39.7864 21.0147 39.7864 21.1681ZM24.2745 21.5161C24.9091 21.6168 25.4922 21.7563 25.5702 21.8262C25.6482 21.8961 25.3617 22.3729 24.9336 22.8858C24.5055 23.3988 24.1365 23.8467 24.1139 23.8814C23.9506 24.1299 23.0129 22.6676 22.7111 21.6939C22.5781 21.2648 22.6429 21.2574 24.2745 21.5161ZM37.3801 21.4739C37.3801 21.9825 36.2951 23.8932 36.0044 23.8966C35.8228 23.8987 34.0861 21.8412 34.191 21.7482C34.2665 21.6812 36.3397 21.3844 36.9389 21.3549C37.1815 21.3429 37.3801 21.3965 37.3801 21.4739ZM27.8062 22.5679C27.9007 23.0646 27.8486 23.1235 26.1848 24.4033C25.2394 25.1304 24.0057 26.0804 23.4436 26.5143C22.8813 26.9482 22.4482 27.2255 22.4811 27.1308C22.6059 26.7703 27.5659 21.8749 27.6715 22.008C27.6918 22.0336 27.7525 22.2855 27.8062 22.5679ZM12.2886 22.6904C11.307 23.9768 11.1974 24.8958 11.85 26.3705C12.2349 27.2398 12.3462 27.2207 13.0112 26.1729C13.3989 25.5619 13.4746 25.2768 13.4644 24.4684C13.4509 23.4005 13.1711 22.2735 12.897 22.1821C12.8002 22.1499 12.5265 22.3787 12.2886 22.6904ZM35.5753 25.0958C36.568 26.0658 37.3801 26.9183 37.3801 26.9903C37.3801 27.0621 36.225 26.2414 34.8133 25.1663C32.2959 23.2493 32.0989 23.0265 32.3482 22.3769C32.4648 22.0734 32.593 22.1815 35.5753 25.0958ZM46.929 22.3352C46.2634 24.3433 46.4284 25.866 47.4111 26.7889L47.7987 27.1527L48.1423 26.3674C48.8155 24.8293 48.7033 23.8006 47.7376 22.6559C47.2703 22.1021 47.037 22.0096 46.929 22.3352ZM28.177 25.7015L28.2819 26.9435L27.4165 26.6441C26.3962 26.2909 25.3151 25.678 25.3816 25.49C25.4074 25.4171 25.9676 24.9497 26.6264 24.4515L27.8245 23.5456L27.9482 24.0026C28.0162 24.254 28.1192 25.0185 28.177 25.7015ZM6.63027 24.3159C6.78861 25.2907 7.61945 26.8669 8.20372 27.3009C8.82954 27.7657 9.6453 28.0673 10.2769 28.0673H10.7189L10.1872 26.7137C9.89476 25.9693 9.52257 25.1764 9.36022 24.9519C8.98948 24.4395 7.62988 23.7382 7.00727 23.7382C6.55632 23.7382 6.54043 23.7624 6.63027 24.3159ZM33.5265 24.5596C34.1459 25.0113 34.6528 25.4267 34.6528 25.4827C34.6528 25.7923 32.0634 26.9757 31.8509 26.7633C31.7318 26.6443 32.1398 23.7382 32.2755 23.7382C32.344 23.7382 32.9069 24.1078 33.5265 24.5596ZM52.1364 23.9838C51.1235 24.296 50.469 25.0464 49.8274 26.6308C49.2952 27.9458 49.2884 27.9887 49.6094 28.0415C49.7914 28.0713 50.2702 28.0035 50.6735 27.8906C51.7542 27.5882 52.623 26.6466 53.0661 25.298C53.6221 23.6049 53.5763 23.5402 52.1364 23.9838ZM36.3625 26.8648C36.3396 26.953 35.873 27.3217 35.3258 27.6843C34.3047 28.3606 32.5633 29.0293 31.8233 29.0293C31.4698 29.0293 31.4216 28.9748 31.5037 28.6686C31.5568 28.4701 31.6014 28.0784 31.6025 27.7981C31.6046 27.3219 31.6601 27.2722 32.447 27.0424C32.9101 26.9071 33.6863 26.5556 34.1716 26.2616L35.0539 25.7269L35.729 26.2156C36.1002 26.4845 36.3853 26.7766 36.3625 26.8648ZM25.9952 26.3697C26.5658 26.6706 27.3306 26.9956 27.6946 27.0921C28.2527 27.2398 28.3722 27.3458 28.4566 27.7675C28.6553 28.7605 28.5905 29.0293 28.1526 29.0293C27.2308 29.0293 24.7933 27.9517 23.8498 27.1272C23.5673 26.8803 23.5811 26.847 24.1707 26.3483C24.5095 26.0618 24.8252 25.8263 24.8722 25.825C24.9192 25.8237 25.4245 26.0689 25.9952 26.3697ZM13.7437 26.9873C13.2247 28.0123 13.1963 28.8868 13.6535 29.7533C13.9991 30.4079 14.7292 31.2741 14.9355 31.2741C15.1376 31.2741 15.5623 29.7991 15.5623 29.0975C15.5623 28.6336 15.3781 28.063 14.9761 27.2821C14.6538 26.6557 14.3406 26.1433 14.2805 26.1433C14.2201 26.1433 13.9785 26.5231 13.7437 26.9873ZM45.0338 27.2648C44.6616 27.9878 44.4388 28.644 44.4388 29.0167C44.4388 29.7255 44.8735 31.2741 45.0724 31.2741C45.5143 31.2741 46.6753 29.3059 46.6802 28.5483C46.6847 27.8868 46.3717 26.9719 45.9888 26.5271L45.6288 26.1088L45.0338 27.2648ZM24.1118 27.7356C24.9386 28.3594 27.1336 29.3479 27.7011 29.3523C28.4314 29.3577 28.7171 29.5426 28.7171 30.0101C28.7171 30.5596 28.7691 30.5545 27.2106 30.1562C25.7828 29.7913 24.033 28.9195 23.1518 28.1343C22.5606 27.6073 22.5509 27.5818 22.8521 27.3476C23.0235 27.2143 23.189 27.1053 23.22 27.1053C23.2511 27.1053 23.6523 27.3889 24.1118 27.7356ZM37.2999 27.3618C37.6156 27.6041 37.6128 27.6145 37.1394 28.004C35.8217 29.088 33.641 30.0749 31.8855 30.3818C31.3041 30.4834 31.2839 30.4713 31.2839 30.0204C31.2839 29.5738 31.3343 29.5415 32.447 29.2718C33.8517 28.9312 35.3351 28.2514 36.0967 27.5991C36.7413 27.0472 36.8596 27.0238 37.2999 27.3618ZM9.06504 29.291C8.32179 29.4712 8.31923 29.4765 8.64505 30.1084C9.13515 31.0587 10.1101 32.092 10.8207 32.4147C11.4942 32.7205 12.9152 32.8138 13.289 32.577C13.4509 32.4745 13.2675 32.1351 12.5301 31.1727C11.9954 30.4748 11.3513 29.782 11.0989 29.6328C10.6008 29.3388 9.57744 29.1667 9.06504 29.291ZM49.5586 29.3346C49.3303 29.4084 48.9559 29.5915 48.7264 29.7419C48.2598 30.0473 46.4624 32.3879 46.5936 32.5191C46.7888 32.7142 48.2983 32.7389 48.8527 32.556C49.1833 32.4469 49.7281 32.1101 50.0633 31.8075C50.8505 31.0967 51.7527 29.7013 51.5538 29.5025C51.3379 29.2867 50.0447 29.1778 49.5586 29.3346ZM16.3801 30.3359C16.1281 31.0586 16.1675 31.7402 16.5041 32.4766C16.7897 33.1013 17.9149 34.2692 18.568 34.6186C18.8559 34.7725 18.9042 34.7358 18.9923 34.2958C19.2711 32.902 18.9514 32.0347 17.6858 30.753C17.1851 30.2458 16.7261 29.831 16.6658 29.831C16.6055 29.831 16.477 30.0582 16.3801 30.3359ZM42.3152 30.753C41.0445 32.0398 40.6717 33.1253 41.0458 34.4492L41.1501 34.8185L41.9005 34.2852C43.4919 33.1542 44.1096 31.7366 43.6209 30.3359C43.524 30.0582 43.3955 29.831 43.3352 29.831C43.2749 29.831 42.8159 30.2458 42.3152 30.753ZM20.0542 33.5149C20.0542 34.6468 20.4451 35.565 21.1333 36.0497C21.5941 36.3743 22.8635 37.0462 23.0156 37.0462C23.2209 37.0462 23.0702 35.6285 22.8024 35.042C22.4593 34.2902 21.5719 33.3888 20.684 32.8899L20.0542 32.5362V33.5149ZM39.2232 32.9183C38.3089 33.5539 37.5007 34.4039 37.2041 35.042C36.9331 35.6245 36.7773 37.0462 36.9843 37.0462C37.0315 37.0462 37.4104 36.8723 37.8265 36.6597C38.7013 36.2128 39.5318 35.4 39.7767 34.751C39.9725 34.2315 40.0062 32.7726 39.8248 32.6605C39.7576 32.6191 39.4868 32.7351 39.2232 32.9183ZM45.8526 33.8454C45.3205 33.936 44.501 34.4714 43.0752 35.6603L42.5939 36.0616L43.2356 36.3425C44.1131 36.7268 45.4734 36.7017 46.2837 36.2859C46.9831 35.9272 48.4494 34.6995 48.4494 34.4728C48.4494 34.0803 46.8058 33.6831 45.8526 33.8454ZM12.073 34.0785C11.7863 34.2031 11.5516 34.3715 11.5516 34.4526C11.5516 34.7048 12.9278 35.8828 13.6614 36.2585C14.5163 36.6965 15.8443 36.7305 16.7654 36.338L17.4071 36.0646L16.8457 35.5915C16.5368 35.3313 15.8608 34.8307 15.3434 34.4789C14.5158 33.9164 14.2939 33.8403 13.4985 33.8457C13.0012 33.8493 12.3597 33.954 12.073 34.0785ZM17.1003 37.5324C16.2171 37.9728 15.8478 38.3336 16.0413 38.5667C16.3227 38.9055 17.7237 39.5913 18.4809 39.7609C19.3592 39.9576 20.3076 39.7264 21.2513 39.0857L21.8589 38.673L20.3983 37.9398C18.7578 37.1163 18.0979 37.0348 17.1003 37.5324ZM39.7062 37.8561C39.0004 38.2231 38.3867 38.5584 38.3426 38.6009C38.1783 38.7596 39.2517 39.4644 40.0006 39.6897C40.6004 39.8703 40.9511 39.8857 41.5479 39.7577C42.3619 39.5833 44.0112 38.6814 44.0143 38.4091C44.0152 38.3209 43.7165 38.0384 43.3506 37.7814C42.8733 37.4461 42.4456 37.2964 41.8375 37.2515C41.0909 37.1963 40.8364 37.2685 39.7062 37.8561ZM22.7012 39.5956C22.0757 39.8856 21.0167 40.8057 21.0167 41.059C21.0167 41.2706 22.9606 41.8564 23.6634 41.8564C24.0446 41.8564 24.6612 41.6877 25.1252 41.4566C25.9365 41.0526 26.9256 40.1728 26.7575 40.0046C26.6163 39.8637 24.1951 39.2945 23.7439 39.2964C23.5234 39.2972 23.0541 39.4319 22.7012 39.5956ZM34.6528 39.5988C34.0793 39.7523 33.5116 39.9108 33.3913 39.9512C33.0229 40.0748 33.9868 41.0579 34.8869 41.4768C35.3318 41.6838 35.9884 41.854 36.3463 41.8548C37.0876 41.8565 38.9843 41.2642 38.9843 41.0309C38.9843 40.7707 37.9788 39.9155 37.2999 39.598C36.5221 39.2344 36.0145 39.2345 34.6528 39.5988ZM0.326849 44.5771C0.0244476 44.8794 0.00102586 45.1022 0.00102586 47.6729C0.00102586 51.3355 -0.127634 51.156 2.49676 51.156H4.49293V50.5948V50.0336H2.88868H1.28443V47.7946V45.5557L2.84857 45.5098L4.41271 45.464V44.9028V44.3416L2.53269 44.2965C0.823045 44.2555 0.623314 44.2808 0.326849 44.5771ZM5.72291 44.3684C5.66403 44.4271 5.6159 45.9783 5.6159 47.8156V51.156H6.2576H6.8993V47.7087V44.2614H6.36461C6.07039 44.2614 5.78162 44.3095 5.72291 44.3684ZM8.02228 44.8984V45.5441H8.90462H9.78695V48.35V51.156H10.3484H10.9099V49.8178C10.9099 49.0817 10.9568 47.819 11.0142 47.0119L11.1183 45.5441H11.9864H12.8544L12.8045 44.9429L12.7548 44.3416L10.3885 44.2972L8.02228 44.2529V44.8984ZM13.5879 44.3817C13.5504 44.4479 13.9431 45.3678 14.4605 46.426C15.3895 48.3258 15.4013 48.3677 15.4017 49.753L15.4018 51.156H16.0435H16.6852V49.871C16.6852 48.6096 16.7045 48.5477 17.728 46.5062C18.3015 45.3623 18.7708 44.3892 18.7708 44.3438C18.7708 44.2985 18.4828 44.2614 18.1308 44.2614H17.4909L16.782 45.6644L16.0732 47.0673L15.406 45.6644C14.7616 44.3097 14.72 44.2614 14.1974 44.2614C13.8996 44.2614 13.6254 44.3155 13.5879 44.3817ZM19.7959 44.6653L19.3919 45.0692L19.4423 47.8852C19.4883 50.4553 19.5199 50.7213 19.8041 50.9288C20.0312 51.0944 20.6285 51.156 22.0099 51.156H23.9044V50.5948V50.0336H22.3001H20.6959V47.7889V45.5441H22.3001H23.9044V44.9028V44.2614H22.0523C20.2868 44.2614 20.1811 44.2803 19.7959 44.6653ZM25.2608 44.6551C24.8738 45.0416 24.8669 45.0958 24.8669 47.7459C24.8669 51.3211 24.7472 51.156 27.3378 51.156C29.9853 51.156 29.8401 51.3544 29.8401 47.7361C29.8401 44.1255 29.9346 44.2614 27.4265 44.2614C25.759 44.2614 25.6312 44.2847 25.2608 44.6551ZM31.2305 44.3684C31.1716 44.4271 31.1235 45.9783 31.1235 47.8156V51.156H31.7652H32.4069L32.4093 49.1116C32.412 46.8302 32.4484 46.8196 33.2294 48.8711L33.733 50.1939H34.3262H34.9195L35.5482 48.6306L36.1769 47.0673L36.2218 49.1116L36.2667 51.156H36.9068H37.5469L37.5036 47.7488L37.4603 44.3416L36.6424 44.294L35.8246 44.2464L35.1184 46.1775C34.73 47.2397 34.3761 48.1083 34.332 48.1076C34.2879 48.107 34.0055 47.4398 33.7046 46.6248C32.8343 44.2677 32.8298 44.2614 32.0284 44.2614C31.6484 44.2614 31.2892 44.3095 31.2305 44.3684ZM38.8239 47.7087V51.156H39.4656H40.1073V50.1138V49.0716H41.4709C43.3963 49.0716 43.4762 48.9757 43.4762 46.6665C43.4762 44.2505 43.4881 44.2614 40.8292 44.2614H38.8239V47.7087ZM45.6421 44.4618C45.6036 44.5722 45.1657 46.0692 44.669 47.7889C44.1721 49.5085 43.7324 50.9695 43.6917 51.0357C43.6511 51.1019 43.9341 51.156 44.3209 51.156C44.9999 51.156 45.029 51.1354 45.1726 50.5547L45.3211 49.9534L46.4569 49.9069L47.5926 49.8603L47.7868 50.5082C47.9712 51.1232 48.013 51.156 48.6162 51.156C48.9656 51.156 49.2515 51.1194 49.2515 51.0748C49.2515 51.0062 47.5833 45.0503 47.3993 44.4618C47.3598 44.3361 47.0336 44.2614 46.5243 44.2614C46.0188 44.2614 45.6858 44.3371 45.6421 44.4618ZM50.2922 44.6498C49.9389 45.0028 49.8932 45.1847 49.8932 46.2368C49.8932 47.1961 49.9572 47.5063 50.2258 47.8474C50.538 48.2441 50.6406 48.2699 51.9102 48.2699H53.2621V49.1517V50.0336H51.6579H50.0536V50.5948V51.156H51.9481C54.4594 51.156 54.4653 51.1515 54.4653 49.2306C54.4653 47.3199 54.298 47.1475 52.4422 47.1475H51.1766V46.3516V45.5557L52.7408 45.5098L54.3049 45.464V44.9028V44.3416L52.498 44.2962C50.7582 44.2526 50.6766 44.2656 50.2922 44.6498ZM55.829 44.5821C55.5598 44.8512 55.5081 45.1165 55.5081 46.2299C55.5081 48.1341 55.6315 48.2699 57.3621 48.2699H58.7166V49.1517V50.0336H57.1123H55.5081V50.5948V51.156H57.4885C59.9857 51.156 60 51.1447 60 49.1791C60 47.3099 59.8462 47.1475 58.0749 47.1475H56.7915V46.3458V45.5441H58.3155H59.8396V44.9028V44.2614H57.9947C56.3636 44.2614 56.1126 44.2986 55.829 44.5821ZM28.5567 47.7889V50.0336H27.3535H26.1503V47.7889V45.5441H27.3535H28.5567V47.7889ZM42.1928 46.6665V47.7889H41.1501H40.1073V46.6665V45.5441H41.1501H42.1928V46.6665ZM46.9015 47.2383C47.3012 48.7078 47.2876 48.7509 46.4253 48.7509C45.7344 48.7509 45.6915 48.7267 45.7855 48.3901C45.841 48.1916 46.0037 47.5738 46.1471 47.0172C46.2906 46.4605 46.4595 46.0636 46.5225 46.1353C46.5854 46.207 46.7561 46.7034 46.9015 47.2383Z" fill="#97BF8D"/>
</svg>
