<svg width="63" height="63" viewBox="0 0 63 63" fill="none" xmlns="http://www.w3.org/2000/svg">
<path fill-rule="evenodd" clip-rule="evenodd" d="M12.2412 0.183091C11.9615 0.271525 9.9019 1.5096 7.66432 2.93446C4.22441 5.12486 3.43655 5.68405 2.56364 6.55467C1.7187 7.39747 1.42514 7.80165 0.945587 8.78192C-0.176892 11.0763 -0.280507 12.8895 0.530999 16.0408C2.91174 25.2866 7.57074 34.1572 13.9644 41.6176C15.5439 43.4607 19.3796 47.3075 21.1773 48.8515C28.7919 55.3916 37.6626 60.071 46.9966 62.4718C50.1394 63.2801 51.9564 63.1757 54.2499 62.0549C56.2229 61.0909 56.9971 60.2109 59.934 55.5942C61.2677 53.4977 62.4865 51.5321 62.6427 51.2261C63.4423 49.6587 62.8526 47.5817 61.3451 46.6563C61.1191 46.5175 57.7017 45.1887 53.7509 43.7034C46.0708 40.8159 45.6322 40.6908 44.5306 41.073C44.2492 41.1706 42.8189 42.0234 41.3522 42.9683C39.8854 43.9132 38.4851 44.7677 38.2404 44.8671C37.5464 45.1495 36.2511 45.0851 35.5706 44.7344C33.2618 43.5446 28.9206 40.1231 25.899 37.1117C22.959 34.1819 19.4152 29.696 18.2989 27.4915C17.9328 26.7684 17.8358 25.754 18.0627 25.0226C18.1625 24.7006 19.0269 23.2291 19.9836 21.7524C20.9402 20.2758 21.8064 18.8311 21.9086 18.5418C22.32 17.3764 22.2885 17.2644 19.3507 9.4237C17.8419 5.39664 16.4934 1.91683 16.354 1.69092C15.5287 0.352208 13.7584 -0.296817 12.2412 0.183091ZM33.3692 0.134427C32.4011 0.424887 31.6294 1.50363 31.6294 2.56649C31.6294 3.32632 32.0801 4.1625 32.7399 4.62704C33.2222 4.96654 33.3789 5.00009 34.9551 5.10034C37.2325 5.24531 39.023 5.53476 40.7831 6.04249C47.9801 8.11866 53.8281 13.5457 56.4579 20.589C57.3086 22.8672 57.735 25.0179 57.9278 28.0017C58.0339 29.6431 58.0659 29.795 58.4071 30.2791C59.4438 31.7499 61.5441 31.7381 62.5868 30.2557C62.9674 29.7146 62.9683 29.7093 62.9563 27.9784C62.9147 21.929 60.4145 15.2653 56.394 10.4877C52.736 6.14096 48.4234 3.20523 43.1351 1.4617C39.8506 0.378764 34.8294 -0.303678 33.3692 0.134427ZM33.2881 10.454C32.6572 10.6678 31.9247 11.4516 31.7501 12.0997C31.4366 13.263 31.9524 14.5253 32.9521 15.0414C33.3081 15.2253 33.8494 15.3267 34.8669 15.4001C38.2614 15.6455 41.0379 16.8484 43.4124 19.1027C45.9804 21.5406 47.3579 24.52 47.635 28.2354C47.7314 29.5304 47.7937 29.8158 48.0709 30.2343C48.8778 31.4531 50.5116 31.7223 51.7648 30.8431C51.9661 30.7018 52.2744 30.2728 52.4498 29.8897C52.7496 29.2355 52.7637 29.1117 52.6822 27.8527C52.1261 19.2565 46.0571 12.2851 37.724 10.6707C36.1413 10.3641 33.8797 10.2537 33.2881 10.454ZM33.3692 20.7182C31.9382 21.1476 31.2134 22.938 31.9252 24.2856C32.3647 25.1177 33.058 25.5492 34.1473 25.6688C36.1614 25.8897 37.1273 26.8616 37.3541 28.8955C37.5321 30.491 38.5923 31.4589 40.0527 31.3593C41.3532 31.2705 42.2763 30.336 42.407 28.9759C42.4951 28.0598 42.1061 26.3821 41.526 25.1771C40.7921 23.6525 39.3649 22.2226 37.859 21.5032C36.2773 20.7477 34.378 20.4156 33.3692 20.7182Z" fill="#97BF8D"/>
</svg>
