<svg width="72" height="60" viewBox="0 0 72 60" fill="none" xmlns="http://www.w3.org/2000/svg">
<path d="M66.0511 0.553667C63.5673 1.13922 22.917 18.0541 2.94468 26.8043C-1.70287 28.8241 0.172858 31.0699 1.69166 31.9403C1.80557 32.0164 3.92431 32.7849 11.488 35.2502C19.0516 37.3502 22.841 35.4404 23.7903 34.223L51.9262 15.6192C55.0018 14.1355 54.66 16.7606 53.5209 17.6736C48.8886 22.1248 38.5075 32.0773 34.0422 36.2774C29.3947 40.1122 31.8779 43.2014 33.7005 44.2667C34.0043 44.533 38.5075 47.7135 54.0905 58.3051C63.3172 63.5552 63.8868 54.9952 64.3424 54.3104C64.707 53.7626 69.5064 22.9618 71.8605 7.62992C72.8857 -2.18553 67.9876 0.0971356 66.0511 0.553667Z" fill="#97BF8D"/>
</svg>
