<svg width="31" height="6" viewBox="0 0 31 6" fill="none" xmlns="http://www.w3.org/2000/svg">
<path d="M1 2.6C0.779086 2.6 0.6 2.77909 0.6 3C0.6 3.22091 0.779086 3.4 1 3.4V2.6ZM30.2828 3.28284C30.4391 3.12663 30.4391 2.87337 30.2828 2.71716L27.7373 0.171573C27.581 0.0153632 27.3278 0.0153632 27.1716 0.171573C27.0154 0.327783 27.0154 0.581048 27.1716 0.737258L29.4343 3L27.1716 5.26274C27.0154 5.41895 27.0154 5.67222 27.1716 5.82843C27.3278 5.98464 27.581 5.98464 27.7373 5.82843L30.2828 3.28284ZM1 3.4H30V2.6H1V3.4Z" fill="white"/>
</svg>
