<svg width="35" height="36" viewBox="0 0 35 36" fill="none" xmlns="http://www.w3.org/2000/svg">
<path d="M33 5.12635C33 4.0321 32.9992 3.48455 32.788 3.06661C32.6024 2.69897 32.307 2.40029 31.9425 2.21295C31.5281 2 30.9844 2 29.8992 2H5.09924C4.01415 2 3.47213 2 3.05768 2.21295C2.69312 2.40029 2.39694 2.69897 2.21117 3.06661C2 3.48455 2 4.0321 2 5.12635V6.56685C2 7.04474 2 7.28385 2.05353 7.50872C2.101 7.70809 2.17947 7.89853 2.2857 8.07335C2.40548 8.27045 2.57333 8.43971 2.9082 8.77742L12.7173 18.6693C13.0523 19.0071 13.219 19.1751 13.3388 19.3725C13.445 19.5471 13.5246 19.7382 13.572 19.9377C13.625 20.1603 13.625 20.3965 13.625 20.8648V30.1569C13.625 31.8318 13.625 32.6698 13.9747 33.1741C14.2803 33.6145 14.7515 33.9083 15.2787 33.9869C15.8824 34.0767 16.6256 33.7026 18.1111 32.9537L19.6611 32.1721C20.2832 31.8585 20.5934 31.7011 20.8207 31.467C21.0216 31.2601 21.1754 31.0117 21.269 30.738C21.375 30.4283 21.375 30.0768 21.375 29.3754V20.8793C21.375 20.4014 21.375 20.1626 21.4285 19.9377C21.4759 19.7382 21.5544 19.5471 21.6608 19.3725C21.7797 19.1765 21.946 19.0088 22.2765 18.6755L22.2833 18.6693L32.0923 8.77742C32.4273 8.4395 32.5939 8.27053 32.7138 8.07335C32.82 7.89853 32.8996 7.70809 32.9471 7.50872C33 7.28616 33 7.04961 33 6.58139V5.12635Z" stroke="#62925E" stroke-width="3" stroke-linecap="round" stroke-linejoin="round"/>
</svg>
