<svg width="25" height="9" viewBox="0 0 25 9" fill="none" xmlns="http://www.w3.org/2000/svg">
<path d="M1.4729 4C1.19676 4 0.9729 4.22386 0.9729 4.5C0.9729 4.77614 1.19676 5 1.4729 5V4ZM23.8805 4.85355C24.0758 4.65829 24.0758 4.34171 23.8805 4.14645L20.6985 0.964466C20.5033 0.769204 20.1867 0.769204 19.9914 0.964466C19.7962 1.15973 19.7962 1.47631 19.9914 1.67157L22.8198 4.5L19.9914 7.32843C19.7962 7.52369 19.7962 7.84027 19.9914 8.03553C20.1867 8.2308 20.5033 8.2308 20.6985 8.03553L23.8805 4.85355ZM1.4729 5H23.527V4H1.4729V5Z" fill="white"/>
</svg>
