<svg width="25" height="9" viewBox="0 0 25 9" fill="none" xmlns="http://www.w3.org/2000/svg">
<path d="M23.5271 4C23.8032 4 24.0271 4.22386 24.0271 4.5C24.0271 4.77614 23.8032 5 23.5271 5V4ZM1.11949 4.85355C0.92423 4.65829 0.92423 4.34171 1.11949 4.14645L4.30147 0.964466C4.49673 0.769204 4.81332 0.769204 5.00858 0.964466C5.20384 1.15973 5.20384 1.47631 5.00858 1.67157L2.18015 4.5L5.00858 7.32843C5.20384 7.52369 5.20384 7.84027 5.00858 8.03553C4.81332 8.2308 4.49673 8.2308 4.30147 8.03553L1.11949 4.85355ZM23.5271 5H1.47305V4H23.5271V5Z" fill="white"/>
</svg>
