<svg width="42" height="32" viewBox="0 0 42 32" fill="none" xmlns="http://www.w3.org/2000/svg">
<path fill-rule="evenodd" clip-rule="evenodd" d="M16.8041 2.27154L15.5854 0.0082551C11.9912 -0.135511 8.63458 1.6394 7.67206 2.14836C7.46898 2.25574 7.37247 2.30677 7.40279 2.27154C-0.410266 11.2482 0.824121 23.3995 1.10312 26.146L1.10312 26.146C1.11632 26.2759 1.12738 26.3848 1.13524 26.4712C1.27452 28.0033 8.04116 30.7076 11.4071 31.8683L13.6703 28.2122L10.3625 26.4712C10.4205 26.3552 10.6062 26.0534 10.8848 25.7749C18.5451 30.2318 28.1205 27.6319 31.9507 25.7749L32.473 26.6453L29.5133 28.2122L31.6025 31.8683C33.7497 31.288 38.8102 29.4309 41.8743 26.6453C42.8282 11.7009 38.1201 5.90284 36.1022 3.4178C35.9103 3.18153 35.7428 2.97522 35.6068 2.79383C34.3533 1.12249 29.3973 0.240387 27.0759 0.0082551C26.9599 0.356452 26.6233 1.29659 26.2054 2.27154C23.977 1.71442 19.0094 2.03941 16.8041 2.27154ZM18.3704 17.2445C18.3704 19.5522 16.6556 21.4229 14.5402 21.4229C12.4249 21.4229 10.7101 19.5522 10.7101 17.2445C10.7101 14.9369 12.4249 13.0662 14.5402 13.0662C16.6556 13.0662 18.3704 14.9369 18.3704 17.2445ZM28.4677 21.4225C30.583 21.4225 32.2978 19.5518 32.2978 17.2441C32.2978 14.9365 30.583 13.0658 28.4677 13.0658C26.3523 13.0658 24.6375 14.9365 24.6375 17.2441C24.6375 19.5518 26.3523 21.4225 28.4677 21.4225Z" fill="#97BF8D"/>
</svg>
