<svg width="38" height="31" viewBox="0 0 38 31" fill="none" xmlns="http://www.w3.org/2000/svg">
<path d="M33.9632 0.284693C32.686 0.585783 11.7838 9.28333 1.51414 13.7826C-0.875607 14.8212 0.0888827 15.976 0.869846 16.4236C0.928418 16.4627 2.01786 16.8578 5.90706 18.1255C9.79626 19.2053 11.7448 18.2233 12.2329 17.5973L26.7002 8.03135C28.2817 7.26842 28.1059 8.61821 27.5202 9.08771C25.1383 11.3765 19.8004 16.494 17.5044 18.6536C15.1146 20.6255 16.3915 22.214 17.3286 22.7617C17.4848 22.8987 19.8004 24.5341 27.8131 29.9802C32.5574 32.6798 32.8503 28.2783 33.0846 27.9262C33.272 27.6445 35.7399 11.8069 36.9504 3.92327C37.4775 -1.12379 34.9589 0.0499467 33.9632 0.284693Z" fill="#97BF8D"/>
</svg>
